<?xml version="1.0" encoding="iso-8859-1"?>
<!-- Uploaded to: SVG Repo, www.svgrepo.com, Generator: SVG Repo Mixer Tools -->
<svg height="800px" width="800px" version="1.1" id="Layer_1" xmlns="http://www.w3.org/2000/svg" xmlns:xlink="http://www.w3.org/1999/xlink" 
	 viewBox="0 0 512 512" xml:space="preserve">
<g transform="translate(1 1)">
	<path style="fill:#E2E3E5;" d="M494.543,209.286h-25.6c-5.486-21.943-13.714-42.057-24.686-60.343l18.286-18.286
		c6.4-6.4,6.4-16.457,0-22.857l-42.057-42.057c-6.4-6.4-16.457-6.4-22.857,0l-18.286,18.286
		c-18.286-11.886-38.4-20.114-60.343-24.686v-25.6c0-9.143-7.314-16.457-16.457-16.457h-58.514c-9.143,0-16.457,7.314-16.457,16.457
		v25.6c-21.943,5.486-42.057,13.714-60.343,24.686l-18.286-18.286c-6.4-6.4-16.457-6.4-22.857,0L84.029,107.8
		c-6.4,6.4-6.4,16.457,0,22.857l18.286,18.286c-11.886,18.286-20.114,38.4-24.686,60.343h-25.6c-9.143,0-16.457,7.314-16.457,16.457
		v58.514c0,9.143,7.314,16.457,16.457,16.457h25.6c5.486,21.943,13.714,42.057,24.686,60.343l-18.286,18.286
		c-6.4,6.4-6.4,16.457,0,22.857l42.057,42.057c6.4,6.4,16.457,6.4,22.857,0l18.286-18.286c18.286,11.886,38.4,20.114,60.343,24.686
		v25.6c0,9.143,7.314,16.457,16.457,16.457h58.514c9.143,0,16.457-7.314,16.457-16.457v-25.6
		c21.943-5.486,42.057-13.714,60.343-24.686l18.286,18.286c6.4,6.4,16.457,6.4,22.857,0l42.057-42.057c6.4-6.4,6.4-16.457,0-22.857
		l-18.286-18.286c11.886-18.286,20.114-38.4,24.686-60.343h25.6c9.143,0,16.457-7.314,16.457-16.457v-58.514
		C511,216.6,503.686,209.286,494.543,209.286"/>
	<path style="fill:#CCCCCC;" d="M467.114,209.286h-25.6c-5.486-21.943-13.714-42.057-24.686-60.343l18.286-18.286
		c6.4-6.4,6.4-16.457,0-22.857l-42.057-42.057c-6.4-6.4-16.457-6.4-22.857,0l-18.286,18.286
		c-18.286-11.886-38.4-20.114-60.343-24.686v-25.6c0-9.143-7.314-16.457-16.457-16.457H216.6c-9.143,0-16.457,7.314-16.457,16.457
		v25.6C178.2,64.829,158.086,73.057,139.8,84.029l-18.286-18.286c-6.4-6.4-16.457-6.4-22.857,0L56.6,107.8
		c-6.4,6.4-6.4,16.457,0,22.857l18.286,18.286C63,167.229,54.771,187.343,50.2,209.286H24.6c-9.143,0-16.457,7.314-16.457,16.457
		v58.514c0,9.143,7.314,16.457,16.457,16.457h25.6c5.486,21.943,13.714,42.057,24.686,60.343L56.6,379.343
		c-6.4,6.4-6.4,16.457,0,22.857l42.057,42.057c6.4,6.4,16.457,6.4,22.857,0l18.286-18.286c18.286,11.886,38.4,20.114,60.343,24.686
		v25.6c0,9.143,7.314,16.457,16.457,16.457h58.514c9.143,0,16.457-7.314,16.457-16.457v-25.6
		c21.943-5.486,42.057-13.714,60.343-24.686l18.286,18.286c6.4,6.4,16.457,6.4,22.857,0l42.057-42.057c6.4-6.4,6.4-16.457,0-22.857
		l-18.286-18.286c11.886-18.286,20.114-38.4,24.686-60.343h25.6c9.143,0,16.457-7.314,16.457-16.457v-58.514
		C483.571,216.6,476.257,209.286,467.114,209.286"/>
	<path style="fill:#E2E3E5;" d="M439.686,209.286h-25.6c-5.486-21.943-13.714-42.057-24.686-60.343l18.286-18.286
		c6.4-6.4,6.4-16.457,0-22.857l-42.057-42.057c-6.4-6.4-12.8,9.143-19.2,15.543l-18.286-9.143
		c-18.286-11.886-14.629-8.229-36.571-12.8v-25.6c0-9.143-7.314-16.457-16.457-16.457H216.6c-9.143,0-16.457,7.314-16.457,16.457
		v25.6C178.2,64.829,158.086,73.057,139.8,84.029l-18.286-18.286c-6.4-6.4-16.457-6.4-22.857,0L56.6,107.8
		c-6.4,6.4-6.4,16.457,0,22.857l18.286,18.286C63,167.229,54.771,187.343,50.2,209.286H24.6c-9.143,0-16.457,7.314-16.457,16.457
		v58.514c0,9.143,7.314,16.457,16.457,16.457h25.6c5.486,21.943,13.714,42.057,24.686,60.343L56.6,379.343
		c-6.4,6.4-6.4,16.457,0,22.857l42.057,42.057c6.4,6.4,16.457,6.4,22.857,0l18.286-18.286c18.286,11.886,38.4,20.114,60.343,24.686
		v25.6c0,9.143,7.314,16.457,16.457,16.457h58.514c9.143,0,16.457-7.314,16.457-16.457v-25.6c21.943-5.486,18.286-1.829,36.571-12.8
		c18.286-5.486,39.314,4.571,55.771-11.886l23.771-23.771c6.4-6.4,6.4-16.457,0-22.857L389.4,361.057
		c11.886-18.286,20.114-38.4,24.686-60.343h25.6c9.143,0,16.457-7.314,16.457-16.457v-58.514
		C456.143,216.6,448.829,209.286,439.686,209.286"/>
	<path style="fill:#E0E0E0;" d="M364.714,255c0,65.829-53.029,118.857-118.857,118.857S127,320.829,127,255
		s53.029-118.857,118.857-118.857S364.714,189.171,364.714,255"/>
	<path style="fill:#FFFFFF;" d="M24.6,300.714h25.6c5.486,21.943,13.714,42.057,24.686,60.343L56.6,379.343
		c-6.4,6.4-6.4,16.457,0,22.857l42.057,42.057c6.4,6.4,16.457,6.4,22.857,0l1.829-1.829l-39.314-39.314
		c-6.4-6.4-6.4-16.457,0-22.857l18.286-18.286c-11.886-18.286-20.114-38.4-24.686-60.343h-25.6c-9.143,0-16.457-7.314-16.457-16.457
		v-58.514c0-9.143,7.314-16.457,16.457-16.457h25.6c5.486-21.943,13.714-42.057,24.686-60.343l-18.286-18.286
		c-6.4-6.4-6.4-16.457,0-22.857L107.8,84.943c6.4-6.4,14.629-9.143,21.943-10.057l-8.229-8.229c-6.4-6.4-16.457-6.4-22.857,0
		L56.6,107.8c-6.4,6.4-6.4,16.457,0,22.857l18.286,18.286C63,167.229,54.771,187.343,50.2,209.286H24.6
		c-9.143,0-16.457,7.314-16.457,16.457v58.514C8.143,293.4,15.457,300.714,24.6,300.714"/>
	<path style="fill:#F0F0F0;" d="M328.143,255c0,45.714-36.571,82.286-82.286,82.286S163.571,300.714,163.571,255
		s36.571-82.286,82.286-82.286S328.143,209.286,328.143,255"/>
	<g>
		<path style="fill:#B6B6B6;" d="M245.857,383c-70.4,0-128-57.6-128-128s57.6-128,128-128s128,57.6,128,128S316.257,383,245.857,383
			z M245.857,145.286c-60.343,0-109.714,49.371-109.714,109.714s49.371,109.714,109.714,109.714S355.571,315.343,355.571,255
			S306.2,145.286,245.857,145.286z"/>
		<path style="fill:#B6B6B6;" d="M275.114,501.857H216.6c-13.714,0-25.6-10.971-25.6-25.6v-18.286
			c-17.371-4.571-33.829-11.886-50.286-21.029l-12.8,12.8c-4.571,4.571-10.971,7.314-18.286,7.314l0,0
			c-6.4,0-12.8-2.743-18.286-7.314l-42.057-42.057c-10.057-10.057-10.057-25.6,0-35.657l12.8-12.8
			c-9.143-15.543-15.543-32-21.029-50.286H22.771C9.971,309.857-1,298.886-1,284.257v-58.514c0-13.714,10.971-25.6,25.6-25.6h18.286
			c4.571-17.371,11.886-33.829,21.029-50.286l-12.8-12.8c-10.057-10.057-10.057-25.6,0-35.657l42.057-42.057
			c10.057-10.057,26.514-10.057,35.657,0l12.8,12.8c15.543-9.143,32-15.543,50.286-21.029V32.829
			C191,19.114,201.971,8.143,216.6,8.143h58.514c14.629,0,25.6,10.971,25.6,25.6v18.286C318.086,56.6,334.543,63.914,351,73.057
			l12.8-12.8c4.571-4.571,10.971-7.314,18.286-7.314l0,0c6.4,0,12.8,2.743,18.286,7.314l42.057,42.057
			c10.057,10.057,10.057,25.6,0,35.657l-12.8,12.8c9.143,15.543,15.543,32,21.029,50.286h18.286c13.714,0,25.6,10.971,25.6,25.6
			v58.514c0,13.714-10.971,25.6-25.6,25.6h-18.286c-4.571,17.371-11.886,33.829-21.029,50.286l12.8,12.8
			c10.057,10.057,10.057,25.6,0,35.657l-42.057,42.057c-4.571,4.571-10.971,7.314-18.286,7.314l0,0c-6.4,0-12.8-2.743-18.286-7.314
			l-12.8-12.8c-15.543,9.143-32,15.543-50.286,21.029v18.286C300.714,490.886,289.743,501.857,275.114,501.857z M139.8,416.829
			c1.829,0,3.657,0,4.571,1.829c18.286,10.971,37.486,19.2,57.6,23.771c4.571,0.914,7.314,4.571,7.314,9.143v25.6
			c0,3.657,2.743,7.314,7.314,7.314h58.514c3.657,0,7.314-3.657,7.314-7.314v-25.6c0-4.571,2.743-8.229,7.314-9.143
			c20.114-4.571,40.229-12.8,57.6-23.771c3.657-1.829,8.229-1.829,10.971,0.914l18.286,18.286c0.914,0.914,2.743,1.829,5.486,1.829
			l0,0c1.829,0,3.657-0.914,5.486-1.829l42.057-42.057c2.743-2.743,2.743-7.314,0-10.057l-18.286-18.286
			c-2.743-2.743-3.657-7.314-0.914-10.971c10.971-17.371,19.2-37.486,23.771-57.6c0.914-4.571,4.571-7.314,9.143-7.314h25.6
			c3.657,0,7.314-3.657,7.314-7.314v-58.514c0-3.657-2.743-7.314-7.314-7.314h-25.6c-4.571,0-8.229-2.743-9.143-7.314
			c-4.571-20.114-12.8-40.229-23.771-57.6c-1.829-3.657-1.829-8.229,0.914-10.971l18.286-18.286c2.743-2.743,2.743-7.314,0-10.057
			l-42.971-42.057c-0.914-0.914-2.743-1.829-5.486-1.829l0,0c-1.829,0-3.657,0.914-4.571,1.829l-18.286,18.286
			c-2.743,2.743-7.314,3.657-10.971,0.914c-18.286-10.057-37.486-18.286-57.6-22.857c-4.571-1.829-7.314-5.486-7.314-9.143v-25.6
			c0-3.657-2.743-7.314-7.314-7.314H216.6c-3.657,0-7.314,3.657-7.314,7.314v25.6c0,4.571-2.743,8.229-7.314,9.143
			c-20.114,4.571-39.314,12.8-57.6,23.771c-3.657,1.829-8.229,1.829-10.971-1.829l-18.286-18.286c-2.743-2.743-7.314-2.743-10.057,0
			L63,114.2c-2.743,2.743-2.743,7.314,0,10.057l18.286,18.286c2.743,2.743,3.657,7.314,0.914,10.971
			C72.143,171.8,63.914,191,59.343,211.114c-1.829,4.571-5.486,7.314-9.143,7.314H24.6c-3.657,0-7.314,3.657-7.314,7.314v58.514
			c0,3.657,3.657,7.314,7.314,7.314h25.6c4.571,0,8.229,2.743,9.143,7.314c4.571,20.114,12.8,39.314,23.771,57.6
			c1.829,3.657,1.829,8.229-1.829,10.971L63,385.743c-2.743,2.743-2.743,7.314,0,10.057l42.057,42.057
			c0.914,0.914,2.743,1.829,5.486,1.829l0,0c1.829,0,3.657-0.914,5.486-1.829l18.286-18.286
			C135.229,417.743,137.057,416.829,139.8,416.829z"/>
		<path style="fill:#B6B6B6;" d="M245.857,346.429c-50.286,0-91.429-41.143-91.429-91.429s41.143-91.429,91.429-91.429
			s91.429,41.143,91.429,91.429S296.143,346.429,245.857,346.429z M245.857,181.857c-40.229,0-73.143,32.914-73.143,73.143
			s32.914,73.143,73.143,73.143S319,295.229,319,255S286.086,181.857,245.857,181.857z"/>
	</g>
</g>
</svg>